<svg width="6" height="6" viewBox="0 0 6 6" fill="none" xmlns="http://www.w3.org/2000/svg">
<path d="M0 2.23711V2.16914C0 1.35 0.592031 0.651328 1.39922 0.516797C1.92305 0.427852 2.47734 0.601992 2.85938 0.98461L3 1.125L3.13008 0.98461C3.52266 0.601992 4.06641 0.427852 4.60078 0.516797C5.4082 0.651328 6 1.35 6 2.16914V2.23711C6 2.72344 5.79844 3.18867 5.44219 3.52031L3.32461 5.49727C3.23672 5.5793 3.1207 5.625 3 5.625C2.8793 5.625 2.76328 5.5793 2.67539 5.49727L0.557695 3.52031C0.201914 3.18867 3.51563e-06 2.72344 3.51563e-06 2.23711H0Z" fill="#DB827E"/>
</svg>
