<svg width="9" height="8" viewBox="0 0 9 8" fill="none" xmlns="http://www.w3.org/2000/svg">
<path d="M7.2202 4.63418L7.22992 6.82305C7.23131 7.3084 6.83268 7.70215 6.341 7.70215H1.89081C1.39982 7.70215 1.00175 7.30977 1.00175 6.82715V4.63418H0.55673C0.306302 4.63418 0.111572 4.44141 0.111572 4.19531C0.111572 4.07227 0.153296 3.96289 0.250606 3.86719L3.81173 0.811742C3.90895 0.715848 4.02007 0.702148 4.11729 0.702148C4.21452 0.702148 4.32564 0.729547 4.41036 0.798043L5.88959 2.07891V1.57715C5.88959 1.33557 6.08821 1.13965 6.33405 1.13965H6.77852C7.02436 1.13965 7.22298 1.33557 7.22298 1.57715V3.23145L7.95634 3.86719C8.06746 3.96289 8.1244 4.07227 8.10913 4.19531C8.10913 4.44141 7.90078 4.63418 7.66466 4.63418H7.2202ZM5.66736 4.09277C5.66736 3.97246 5.56735 3.87402 5.44513 3.87402H4.66732V3.1084C4.66732 2.98809 4.56731 2.88965 4.44509 2.88965H3.77839C3.65616 2.88965 3.55616 2.98809 3.55616 3.1084V3.87402H2.77835C2.65612 3.87402 2.55612 3.97246 2.55612 4.09277V4.74902C2.55612 4.86934 2.65612 4.96777 2.77835 4.96777H3.55616V5.7334C3.55616 5.85371 3.65616 5.95215 3.77839 5.95215H4.44509C4.56731 5.95215 4.66732 5.85371 4.66732 5.7334V4.96777H5.44513C5.56735 4.96777 5.66736 4.86934 5.66736 4.74902V4.09277Z" fill="white"/>
</svg>
