<svg width="10" height="10" viewBox="0 0 10 10" fill="none" xmlns="http://www.w3.org/2000/svg">
<path d="M4.99932 4.25021C6.54976 4.25021 8.73232 6.64659 8.73232 8.1602C8.74951 8.84181 8.22717 9.25 7.34734 9.25C6.39407 9.25 5.76311 8.75979 4.99932 8.75979C4.22772 8.75979 3.59481 9.25 2.6513 9.25C1.78984 9.25 1.24991 8.84221 1.24991 8.16118C1.26632 6.64855 3.4483 4.25021 4.99932 4.25021ZM7.87477 4.00412C8.07734 3.32798 8.70497 2.88855 9.27381 3.02526C9.84265 3.16197 10.1389 3.82054 9.93622 4.49629C9.73365 5.174 9.10601 5.61343 8.53718 5.47672C7.96834 5.34001 7.67356 4.67988 7.87477 4.00412ZM6.22021 3.59789C5.61719 3.43921 5.31441 2.63895 5.54628 1.77433C5.77815 0.909721 6.45463 0.385719 7.05999 0.526924C7.66302 0.685609 7.9658 1.48587 7.73393 2.35048C7.50166 3.19752 6.82578 3.75804 6.22021 3.59789ZM0.723269 3.02565C1.29211 2.90651 1.91974 3.32837 2.12231 4.00451C2.32488 4.68085 2.02953 5.33981 1.46069 5.47652C0.89185 5.59566 0.266753 5.1738 0.0616436 4.49766C-0.140145 3.82054 0.172402 3.16236 0.723269 3.02565ZM3.77843 3.59789C3.19045 3.75658 2.49659 3.19752 2.26472 2.35048C2.03285 1.50345 2.33553 0.685511 2.93865 0.526924C3.52663 0.368239 4.22049 0.927298 4.45236 1.77433C4.68482 2.62137 4.38204 3.43969 3.77843 3.59789Z" fill="white"/>
</svg>
