<svg width="9" height="9" viewBox="0 0 9 9" fill="none" xmlns="http://www.w3.org/2000/svg">
<g clip-path="url(#clip0_175_77)">
<path d="M8.83479 2.95488L6.02932 0.151172C5.80889 -0.0692576 5.45188 -0.0703123 5.23022 0.148964C5.00733 0.369394 5.00645 0.7308 5.22801 0.952461L8.03348 3.75617C8.25497 3.97748 8.61409 3.97713 8.83487 3.75507C9.05452 3.54902 9.05452 3.19043 8.83479 2.95488ZM5.87815 4.31367L4.68495 3.12065L5.65403 2.15174L4.85862 1.35633L2.9303 3.28359C2.70881 3.50859 2.55237 3.78984 2.4803 4.09922L1.99163 6.21211L0.0826416 8.1211C-0.0272217 8.23096 -0.0272217 8.40885 0.0826416 8.51871L0.480435 8.91633C0.590298 9.02619 0.768364 9.02619 0.878228 8.91633L2.78721 7.00735L4.90186 6.51955C5.20948 6.44704 5.49301 6.29104 5.71713 6.0692L7.6437 4.14088L6.84829 3.34547L5.87815 4.31367ZM4.92014 5.2752C4.84631 5.34727 4.75139 5.4 4.64768 5.42461L3.25461 5.74541L3.57542 4.35234C3.59959 4.24907 3.65232 4.15459 3.72483 4.07988L3.88962 3.91729L5.08283 5.11031L4.92014 5.2752Z" fill="white"/>
</g>
<defs>
<clipPath id="clip0_175_77">
<rect width="9" height="9" fill="white"/>
</clipPath>
</defs>
</svg>
